<svg xmlns="http://www.w3.org/2000/svg" xmlns:xlink="http://www.w3.org/1999/xlink" width="87.435" height="87.434" viewBox="0 0 87.435 87.434">
  <defs>
    <linearGradient id="linear-gradient" x1="-24.392" y1="-26.66" x2="-23.392" y2="-26.66" gradientUnits="objectBoundingBox">
      <stop offset="0" stop-color="#5a64d1"/>
      <stop offset="1" stop-color="#9aa2fc"/>
    </linearGradient>
    <linearGradient id="linear-gradient-2" x1="-6.102" y1="-6.29" x2="-5.094" y2="-6.29" gradientUnits="objectBoundingBox">
      <stop offset="0" stop-color="#7780d4"/>
      <stop offset="1" stop-color="#b3bbfc"/>
    </linearGradient>
    <linearGradient id="linear-gradient-3" x1="-6.608" y1="-13.932" x2="-5.756" y2="-13.932" xlink:href="#linear-gradient-2"/>
    <linearGradient id="linear-gradient-4" x1="-28.149" y1="-9.165" x2="-25.28" y2="-9.165" gradientUnits="objectBoundingBox">
      <stop offset="0" stop-color="#7db0e2"/>
      <stop offset="1" stop-color="#b9e8fd"/>
    </linearGradient>
    <linearGradient id="linear-gradient-5" x1="-29.952" y1="-21.455" x2="-28.198" y2="-21.455" xlink:href="#linear-gradient-4"/>
    <linearGradient id="linear-gradient-6" x1="-2.431" y1="-4.318" x2="-1.285" y2="-4.318" gradientUnits="objectBoundingBox">
      <stop offset="0" stop-color="#b4c0da"/>
      <stop offset="1" stop-color="#ecf6ff"/>
    </linearGradient>
  </defs>
  <g id="Grupo_1203929" data-name="Grupo 1203929" transform="translate(0)">
    <g id="Grupo_1188789" data-name="Grupo 1188789" transform="translate(0)">
      <rect id="Rectángulo_400898" data-name="Rectángulo 400898" width="72.382" height="72.381" rx="36.191" transform="translate(7.527 7.526)" fill="#fdcf64"/>
      <rect id="Rectángulo_400907" data-name="Rectángulo 400907" width="78.382" height="78.381" rx="39.191" transform="translate(4.527 4.526)" fill="none"/>
      <g id="Grupo_1098742" data-name="Grupo 1098742">
        <g id="Rectángulo_400898-2" data-name="Rectángulo 400898" fill="none" stroke="#17181a" stroke-width="2" opacity="0.859">
          <rect width="87.435" height="87.434" rx="43.717" stroke="none"/>
          <rect x="1" y="1" width="85.435" height="85.434" rx="42.717" fill="none"/>
        </g>
        <g id="Rectángulo_400907-2" data-name="Rectángulo 400907" transform="translate(0)" fill="none" stroke="#17181a" stroke-linecap="round" stroke-width="2">
          <rect width="87.435" height="87.434" rx="43.717" stroke="none"/>
          <rect x="1" y="1" width="85.435" height="85.434" rx="42.717" fill="none"/>
        </g>
      </g>
      <g id="settings" transform="translate(16.152 13.22)">
        <g id="XMLID_2045_" transform="translate(3.5 6.5)">
          <g id="XMLID_12_" transform="translate(0 0)">
            <g id="XMLID_2076_" transform="translate(0.572 0.572)">
              <path id="XMLID_269_" d="M233.561,85.25a2.311,2.311,0,1,1-2.311,2.311A2.312,2.312,0,0,1,233.561,85.25Z" transform="translate(-210.115 -78.316)" fill="url(#linear-gradient)"/>
              <path id="XMLID_2084_" d="M176.99,21.745v2.311h-2.707a6.937,6.937,0,0,1-.28.678l1.914,1.914-3.269,3.269L170.734,28a6.932,6.932,0,0,1-.678.28V30.99h-4.623V28.283a6.932,6.932,0,0,1-.678-.28l-1.914,1.914-3.269-3.269,1.914-1.914a6.937,6.937,0,0,1-.28-.678H158.5V19.434h2.707a6.937,6.937,0,0,1,.28-.678l-1.914-1.914,3.269-3.269,1.914,1.914a6.932,6.932,0,0,1,.678-.28V12.5h4.623v2.707a6.932,6.932,0,0,1,.678.28l1.914-1.914,3.269,3.269L174,18.756a6.937,6.937,0,0,1,.28.678h2.707Zm-6.934,0a2.311,2.311,0,1,0-2.311,2.311A2.312,2.312,0,0,0,170.056,21.745Z" transform="translate(-144.299 -12.5)" fill="url(#linear-gradient-2)"/>
              <path id="XMLID_266_" d="M182.656,417.359v.719H165.5v-.719a3.765,3.765,0,0,1,2.573-3.57,3.763,3.763,0,0,0,2.573-3.57V409.5h6.862v.719a3.765,3.765,0,0,0,2.573,3.57A3.763,3.763,0,0,1,182.656,417.359Z" transform="translate(-150.632 -371.662)" fill="url(#linear-gradient-3)"/>
              <path id="XMLID_265_" d="M407.03,153.2h4.143v12.991H407.03Z" transform="translate(-369.142 -139.79)" fill="url(#linear-gradient-4)"/>
              <path id="XMLID_264_" d="M75.5,289.5h3.812v5.719H75.5Z" transform="translate(-69.21 -263.099)" fill="url(#linear-gradient-5)"/>
              <path id="XMLID_2077_" d="M19.6,132.374v-5.719H15.79v5.719ZM56.488,109.5v28.593H9.5V109.5H23.7v2.311h2.707a6.933,6.933,0,0,0,.28.678L24.774,114.4l3.269,3.269,1.914-1.914a6.931,6.931,0,0,0,.678.28v2.707h4.623v-2.707a6.931,6.931,0,0,0,.678-.28l1.914,1.914,3.269-3.269L39.2,112.489a6.932,6.932,0,0,0,.28-.678h2.707V109.5Zm-4.956,17.156V113.665H47.388v12.991Z" transform="translate(-9.5 -100.255)" fill="url(#linear-gradient-6)"/>
            </g>
            <g id="XMLID_2047_">
              <g id="XMLID_260_" transform="translate(21.135 6.934)">
                <path id="XMLID_1316_" d="M228.133,85.016a2.883,2.883,0,1,1,2.883-2.883A2.886,2.886,0,0,1,228.133,85.016Zm0-4.623a1.739,1.739,0,1,0,1.739,1.739A1.741,1.741,0,0,0,228.133,80.394Z" transform="translate(-225.25 -79.25)"/>
              </g>
              <g id="XMLID_259_" transform="translate(0 9.245)">
                <path id="XMLID_1315_" d="M51.06,133.237H4.072a.572.572,0,0,1-.572-.572V104.072a.572.572,0,0,1,.572-.572h14.2a.572.572,0,1,1,0,1.144H4.644v27.449H50.488V104.644H36.763a.572.572,0,1,1,0-1.144h14.3a.572.572,0,0,1,.572.572v28.593A.572.572,0,0,1,51.06,133.237Z" transform="translate(-3.5 -103.5)"/>
              </g>
              <g id="XMLID_258_" transform="translate(14.868 37.838)">
                <path id="XMLID_1314_" d="M177.228,413.22H160.072a.572.572,0,0,1-.572-.572v-.719a4.337,4.337,0,0,1,2.965-4.113,3.187,3.187,0,0,0,2.182-3.028v-.719a.572.572,0,1,1,1.144,0v.719a4.329,4.329,0,0,1-2.965,4.113,3.194,3.194,0,0,0-2.182,3.028v.147h16.012v-.147a3.187,3.187,0,0,0-2.182-3.028,4.337,4.337,0,0,1-2.965-4.113v-.719a.572.572,0,1,1,1.144,0v.719a3.194,3.194,0,0,0,2.182,3.028,4.33,4.33,0,0,1,2.965,4.113v.719A.572.572,0,0,1,177.228,413.22Z" transform="translate(-159.5 -403.498)"/>
              </g>
              <g id="XMLID_257_" transform="translate(14.201)">
                <path id="XMLID_1311_" d="M164.628,26.134h-4.623a.572.572,0,0,1-.572-.572V23.278l-1.615,1.615a.572.572,0,0,1-.809,0l-3.269-3.269a.572.572,0,0,1,0-.809l1.615-1.615h-2.284a.572.572,0,0,1-.572-.572V14.006a.572.572,0,0,1,.572-.572h2.284l-1.615-1.615a.572.572,0,0,1,0-.809l3.269-3.269a.572.572,0,0,1,.809,0l1.615,1.615V7.072a.572.572,0,0,1,.572-.572h4.623a.572.572,0,0,1,.572.572V9.356l1.615-1.615a.572.572,0,0,1,.809,0l3.269,3.269a.572.572,0,0,1,0,.809l-1.615,1.615h2.284a.572.572,0,0,1,.572.572v4.623a.572.572,0,0,1-.572.572h-2.284l1.615,1.615a.572.572,0,0,1,0,.809l-3.269,3.269a.572.572,0,0,1-.809,0L165.2,23.278v2.284a.572.572,0,0,1-.572.572Zm-4.051-1.144h3.479V22.855a.572.572,0,0,1,.381-.539,6.385,6.385,0,0,0,.622-.257.572.572,0,0,1,.651.112l1.51,1.509,2.46-2.46-1.509-1.509a.572.572,0,0,1-.112-.651,6.392,6.392,0,0,0,.257-.622.572.572,0,0,1,.539-.381h2.135V14.577h-2.135a.572.572,0,0,1-.539-.381,6.392,6.392,0,0,0-.257-.622.572.572,0,0,1,.112-.651l1.509-1.509-2.46-2.46-1.51,1.509a.572.572,0,0,1-.651.112,6.385,6.385,0,0,0-.622-.257.572.572,0,0,1-.381-.539V7.644h-3.479V9.779a.572.572,0,0,1-.381.539,6.386,6.386,0,0,0-.622.257.572.572,0,0,1-.651-.112l-1.509-1.51-2.46,2.46,1.509,1.509a.572.572,0,0,1,.112.651,6.384,6.384,0,0,0-.257.622.572.572,0,0,1-.539.381h-2.135v3.479h2.135a.572.572,0,0,1,.539.381,6.384,6.384,0,0,0,.257.622.572.572,0,0,1-.112.651l-1.509,1.509,2.46,2.46,1.509-1.509a.572.572,0,0,1,.651-.112,6.386,6.386,0,0,0,.622.257.572.572,0,0,1,.381.539Z" transform="translate(-152.5 -6.5)"/>
              </g>
              <g id="XMLID_256_" transform="translate(34.883 29.26)">
                <path id="XMLID_1310_" d="M370.072,317.5a.572.572,0,0,1-.572-.572v-2.859a.572.572,0,1,1,1.144,0v2.859A.572.572,0,0,1,370.072,317.5Z" transform="translate(-369.5 -313.5)"/>
              </g>
              <g id="XMLID_255_" transform="translate(4.861 14.964)">
                <path id="XMLID_1309_" d="M63.173,164.644h-8.1a.572.572,0,1,1,0-1.144h8.1a.572.572,0,1,1,0,1.144Z" transform="translate(-54.5 -163.5)"/>
              </g>
              <g id="XMLID_254_" transform="translate(4.861 20.682)">
                <path id="XMLID_1308_" d="M63.173,224.644h-8.1a.572.572,0,1,1,0-1.144h8.1a.572.572,0,1,1,0,1.144Z" transform="translate(-54.5 -223.5)"/>
              </g>
              <g id="XMLID_253_" transform="translate(10.103 32.119)">
                <path id="XMLID_1307_" d="M142,344.644H110.072a.572.572,0,1,1,0-1.144H142a.572.572,0,1,1,0,1.144Z" transform="translate(-109.5 -343.5)"/>
              </g>
              <g id="XMLID_252_" transform="translate(6.29 26.401)">
                <path id="XMLID_1304_" d="M73.884,290.362H70.072a.572.572,0,0,1-.572-.572v-5.719a.572.572,0,0,1,.572-.572h3.812a.572.572,0,0,1,.572.572v5.719A.572.572,0,0,1,73.884,290.362Zm-3.241-1.144h2.669v-4.575H70.644Z" transform="translate(-69.5 -283.5)"/>
              </g>
              <g id="XMLID_251_" transform="translate(37.888 13.41)">
                <path id="XMLID_1301_" d="M405.745,161.334H401.6a.572.572,0,0,1-.572-.572V147.772a.572.572,0,0,1,.572-.572h4.143a.572.572,0,0,1,.572.572v12.991A.572.572,0,0,1,405.745,161.334Zm-3.571-1.144h3V148.344h-3Z" transform="translate(-401.03 -147.2)"/>
              </g>
            </g>
          </g>
        </g>
      </g>
    </g>
  </g>
</svg>
