<svg xmlns="http://www.w3.org/2000/svg" width="87.435" height="87.434" viewBox="0 0 87.435 87.434">
  <g id="Grupo_1204293" data-name="Grupo 1204293" transform="translate(-199.565 -2186.81)">
    <g id="Grupo_1203926" data-name="Grupo 1203926" transform="translate(199.565 2186.81)">
      <g id="Grupo_1188789" data-name="Grupo 1188789" transform="translate(0)">
        <rect id="Rectángulo_400898" data-name="Rectángulo 400898" width="72.382" height="72.381" rx="36.191" transform="translate(7.527 7.526)" fill="#faf9f6"/>
        <rect id="Rectángulo_400907" data-name="Rectángulo 400907" width="78.382" height="78.381" rx="39.191" transform="translate(4.527 4.526)" fill="none"/>
        <g id="Grupo_1098742" data-name="Grupo 1098742">
          <g id="Rectángulo_400898-2" data-name="Rectángulo 400898" fill="none" stroke="#17181a" stroke-width="2" opacity="0.859">
            <rect width="87.435" height="87.434" rx="43.717" stroke="none"/>
            <rect x="1" y="1" width="85.435" height="85.434" rx="42.717" fill="none"/>
          </g>
          <g id="Rectángulo_400907-2" data-name="Rectángulo 400907" transform="translate(0)" fill="none" stroke="#17181a" stroke-linecap="round" stroke-width="2">
            <rect width="87.435" height="87.434" rx="43.717" stroke="none"/>
            <rect x="1" y="1" width="85.435" height="85.434" rx="42.717" fill="none"/>
          </g>
        </g>
      </g>
    </g>
    <g id="diapositiva" transform="translate(212.214 2210.078)">
      <g id="Grupo_1204275" data-name="Grupo 1204275" transform="translate(29.506 43.081)">
        <g id="Grupo_1204274" data-name="Grupo 1204274">
          <circle id="Elipse_12517" data-name="Elipse 12517" cx="1.563" cy="1.563" r="1.563" fill="#62a4fb"/>
        </g>
      </g>
      <g id="Grupo_1204277" data-name="Grupo 1204277" transform="translate(9.082 0.69)">
        <g id="Grupo_1204276" data-name="Grupo 1204276" transform="translate(0)">
          <path id="Trazado_1244087" data-name="Trazado 1244087" d="M59.346,13.439H16.412a.52.52,0,0,1-.52-.52V8.02a.52.52,0,0,1,.52-.52H59.346a.52.52,0,0,1,.52.52v4.9A.52.52,0,0,1,59.346,13.439Z" transform="translate(-15.892 -7.5)" fill="#fda074"/>
        </g>
      </g>
      <g id="Grupo_1204279" data-name="Grupo 1204279" transform="translate(11.105 6.628)">
        <g id="Grupo_1204278" data-name="Grupo 1204278" transform="translate(0)">
          <path id="Trazado_1244088" data-name="Trazado 1244088" d="M76.743,103.827H38.978a1.081,1.081,0,0,1-1.081-1.081V72.083H77.824v30.664a1.081,1.081,0,0,1-1.081,1.081Z" transform="translate(-37.897 -72.083)" fill="#f4f4f4"/>
        </g>
      </g>
      <g id="Grupo_1204281" data-name="Grupo 1204281" transform="translate(34.154 12.091)">
        <g id="Grupo_1204280" data-name="Grupo 1204280">
          <path id="Trazado_1244089" data-name="Trazado 1244089" d="M300.912,136.076H289.085a.526.526,0,0,1-.526-.526v-3.531a.526.526,0,0,1,.526-.526h11.827a.526.526,0,0,1,.526.526v3.531A.526.526,0,0,1,300.912,136.076Z" transform="translate(-288.559 -131.493)" fill="#fdddaf"/>
        </g>
      </g>
      <g id="Grupo_1204283" data-name="Grupo 1204283" transform="translate(49.781 0.885)">
        <g id="Grupo_1204282" data-name="Grupo 1204282">
          <path id="Trazado_1244090" data-name="Trazado 1244090" d="M461.261,9.621H458.5a.52.52,0,0,1,.52.52v4.9a.52.52,0,0,1-.52.52h2.759a.52.52,0,0,0,.52-.52v-4.9A.52.52,0,0,0,461.261,9.621Z" transform="translate(-458.502 -9.621)" fill="#fb8f5d"/>
        </g>
      </g>
      <g id="Grupo_1204285" data-name="Grupo 1204285" transform="translate(47.193 6.628)">
        <g id="Grupo_1204284" data-name="Grupo 1204284">
          <path id="Trazado_1244091" data-name="Trazado 1244091" d="M431.43,72.083v30.664a1.081,1.081,0,0,1-1.081,1.081h2.759a1.081,1.081,0,0,0,1.081-1.081V72.083Z" transform="translate(-430.349 -72.083)" fill="#dce6eb"/>
        </g>
      </g>
      <g id="Grupo_1204287" data-name="Grupo 1204287" transform="translate(43.748 12.091)">
        <g id="Grupo_1204286" data-name="Grupo 1204286" transform="translate(0)">
          <path id="Trazado_1244092" data-name="Trazado 1244092" d="M395.434,131.492h-2.541a.526.526,0,0,1,.526.526v3.531a.526.526,0,0,1-.526.526h2.541a.526.526,0,0,0,.526-.526v-3.531A.526.526,0,0,0,395.434,131.492Z" transform="translate(-392.893 -131.492)" fill="#fdcd93"/>
        </g>
      </g>
      <g id="Grupo_1204289" data-name="Grupo 1204289" transform="translate(15.104 11.723)">
        <g id="Grupo_1204288" data-name="Grupo 1204288">
          <path id="Trazado_1244093" data-name="Trazado 1244093" d="M88.327,127.492a6.937,6.937,0,1,0,6.937,6.937,6.937,6.937,0,0,0-6.937-6.937Zm0,10.637a3.7,3.7,0,1,1,3.7-3.7A3.7,3.7,0,0,1,88.327,138.129Z" transform="translate(-81.39 -127.492)" fill="#62a4fb"/>
        </g>
      </g>
      <g id="Grupo_1204291" data-name="Grupo 1204291" transform="translate(20.662 11.723)">
        <g id="Grupo_1204290" data-name="Grupo 1204290">
          <path id="Trazado_1244094" data-name="Trazado 1244094" d="M143.206,127.492a6.962,6.962,0,0,0-1.379.138,6.938,6.938,0,0,1,0,13.6,6.937,6.937,0,1,0,1.379-13.736Z" transform="translate(-141.827 -127.492)" fill="#5392f9"/>
        </g>
      </g>
      <g id="Grupo_1204292" data-name="Grupo 1204292" transform="translate(8.392)">
        <path id="Trazado_1244095" data-name="Trazado 1244095" d="M52.535,0H9.6a1.211,1.211,0,0,0-1.21,1.21v4.9A1.211,1.211,0,0,0,9.6,7.318h.814v3.143a.69.69,0,0,0,1.379,0V7.318H50.342V37.292a.391.391,0,0,1-.391.391H38.262a.69.69,0,0,0,0,1.379h11.69a1.772,1.772,0,0,0,1.77-1.77V7.318h.814a1.211,1.211,0,0,0,1.21-1.21V1.21A1.211,1.211,0,0,0,52.535,0ZM9.771,5.939V4.349H20.022a.69.69,0,1,0,0-1.379H9.771V1.379H52.366v1.59H41.655a.69.69,0,0,0,0,1.379H52.366v1.59H9.771Z" transform="translate(-8.392)"/>
        <path id="Trazado_1244096" data-name="Trazado 1244096" d="M55.484,161.417H32.167a.392.392,0,0,1-.391-.391V136.954a.69.69,0,0,0-1.379,0v24.072a1.772,1.772,0,0,0,1.77,1.77H50.36v3.438a2.252,2.252,0,1,0,1.379,0V162.8h3.745a.69.69,0,1,0,0-1.379Zm-4.434,7.834a.873.873,0,1,1,.873-.873A.874.874,0,0,1,51.05,169.251Z" transform="translate(-28.374 -123.734)"/>
        <path id="Trazado_1244097" data-name="Trazado 1244097" d="M281.748,227.648h12.5a.69.69,0,1,0,0-1.379h-12.5a.69.69,0,0,0,0,1.379Z" transform="translate(-255.985 -205.463)"/>
        <path id="Trazado_1244098" data-name="Trazado 1244098" d="M281.748,262.9h12.5a.69.69,0,0,0,0-1.379h-12.5a.69.69,0,0,0,0,1.379Z" transform="translate(-255.985 -237.473)"/>
        <path id="Trazado_1244099" data-name="Trazado 1244099" d="M281.748,318.152h12.5a.69.69,0,1,0,0-1.379h-12.5a.69.69,0,0,0,0,1.379Z" transform="translate(-255.985 -287.644)"/>
        <path id="Trazado_1244100" data-name="Trazado 1244100" d="M281.748,353.4h12.5a.69.69,0,1,0,0-1.379h-12.5a.69.69,0,0,0,0,1.379Z" transform="translate(-255.985 -319.655)"/>
        <path id="Trazado_1244101" data-name="Trazado 1244101" d="M97.719,318.628H84.841a.69.69,0,1,0,0,1.379H97.719a.69.69,0,1,0,0-1.379Z" transform="translate(-77.185 -289.329)"/>
        <path id="Trazado_1244102" data-name="Trazado 1244102" d="M97.719,350.836H84.841a.69.69,0,1,0,0,1.379H97.719a.69.69,0,1,0,0-1.379Z" transform="translate(-77.185 -318.575)"/>
        <path id="Trazado_1244103" data-name="Trazado 1244103" d="M282.273,129.955H294.1a1.217,1.217,0,0,0,1.215-1.215v-3.531a1.217,1.217,0,0,0-1.215-1.215H282.273a1.217,1.217,0,0,0-1.215,1.215v3.531A1.217,1.217,0,0,0,282.273,129.955Zm.164-4.583h11.5v3.2h-11.5Z" transform="translate(-255.985 -112.591)"/>
        <path id="Trazado_1244104" data-name="Trazado 1244104" d="M81.516,119.992a7.626,7.626,0,1,0,7.626,7.626A7.635,7.635,0,0,0,81.516,119.992Zm6.192,6.81h-1.88a4.4,4.4,0,0,0-3.623-3.519V121.41A6.258,6.258,0,0,1,87.708,126.8Zm-6.127,3.825h-.017l-.049,0a3.055,3.055,0,1,1,.066,0Zm-.755-9.217v1.873A4.4,4.4,0,0,0,77.2,126.85H75.318A6.258,6.258,0,0,1,80.827,121.41ZM75.3,128.23H77.17a4.4,4.4,0,0,0,3.7,3.731v1.872A6.258,6.258,0,0,1,75.3,128.23Zm6.954,5.591v-1.876a4.4,4.4,0,0,0,3.615-3.763h1.868A6.256,6.256,0,0,1,82.254,133.82Z" transform="translate(-67.867 -108.958)"/>
      </g>
    </g>
  </g>
</svg>
